<mxfile host="app.diagrams.net" modified="2023-12-19T06:42:34.081Z" agent="Mozilla/5.0 (Macintosh; Intel Mac OS X 10_15_7) AppleWebKit/605.1.15 (KHTML, like Gecko) Version/17.1.2 Safari/605.1.15" version="22.1.11" etag="uuAU2fOCo2IbsrUgxB3n" type="github">
  <diagram name="Page-1" id="7HUg0QX5sjjoKSsDGcmH">
    <mxGraphModel>
      <root>
        <mxCell id="0" />
        <mxCell id="1" parent="0" />
      </root>
    </mxGraphModel>
  </diagram>
</mxfile>
